<?xml version="1.0" standalone="no"?><!DOCTYPE svg PUBLIC "-//W3C//DTD SVG 1.1//EN" "http://www.w3.org/Graphics/SVG/1.1/DTD/svg11.dtd"><svg t="1698386427765" class="icon" viewBox="0 0 2074 1024" version="1.1" xmlns="http://www.w3.org/2000/svg" p-id="1522" xmlns:xlink="http://www.w3.org/1999/xlink" width="50" height="50"><path d="M534.562712 0v200.461017L179.633898 406.128814l354.928814 208.271186v200.461017L0 512V304.59661z" fill="#FFD300" p-id="1523"></path><path d="M176.162712 209.138983v200.461017l354.928813 205.667797-354.928813 208.271186V1024l534.562712-302.861017V513.735593z" fill="#FF9500" p-id="1524"></path><path d="M549.315254 421.749153L711.59322 512.867797v211.742372L549.315254 812.257627z" fill="#FFD300" p-id="1525"></path><path d="M962.386441 422.616949c2.60339-6.074576 6.074576-9.545763 11.281356-11.281356V364.474576c-7.810169 8.677966-16.488136 16.488136-25.166102 25.166102-8.677966 7.810169-19.091525 17.355932-30.372881 26.901695-10.413559 8.677966-19.091525 9.545763-25.166102 1.735593-3.471186-3.471186-5.20678-7.810169-3.471187-11.281356s4.338983-8.677966 11.281356-13.016949c11.281356-8.677966 20.827119-17.355932 31.240678-26.033898 9.545763-8.677966 19.959322-19.091525 30.372882-30.372882H902.508475c-5.20678 0-9.545763-0.867797-11.281356-3.471186s-3.471186-6.074576-3.471187-10.413559c0-5.20678 0.867797-8.677966 3.471187-10.41356s6.074576-3.471186 11.281356-3.471186h28.637288c-0.867797-0.867797-1.735593-0.867797-2.60339-1.735593l-2.60339-2.60339c-4.338983-6.074576-7.810169-10.413559-11.281356-14.752543s-7.810169-8.677966-13.016949-14.752542c-3.471186-3.471186-5.20678-7.810169-6.074576-11.281356 0-3.471186 0.867797-6.942373 5.206779-11.281356 3.471186-3.471186 6.942373-5.20678 10.41356-4.338983 3.471186 0.867797 6.942373 2.60339 10.413559 6.942373 4.338983 5.20678 8.677966 10.413559 13.016949 14.752542 4.338983 5.20678 8.677966 10.413559 13.016949 14.752543 5.20678 6.074576 6.942373 10.413559 6.942373 14.752542s-1.735593 6.942373-5.206779 9.545763h23.430508v-60.745763c0-6.074576 0.867797-9.545763 3.471186-12.149152s6.074576-3.471186 11.281356-3.471187c4.338983 0 7.810169 0.867797 10.41356 3.471187s4.338983 6.074576 4.338983 12.149152v60.745763h18.223729c-5.20678-4.338983-4.338983-11.281356 2.603389-19.959322 4.338983-6.074576 7.810169-11.281356 10.41356-15.620339 2.60339-4.338983 5.20678-9.545763 6.942373-13.884746 2.60339-6.074576 6.074576-9.545763 9.545762-11.281356 3.471186-1.735593 7.810169-0.867797 12.149153 0.867797 7.810169 3.471186 9.545763 11.281356 3.471186 22.562712-2.60339 5.20678-6.074576 11.281356-9.545762 16.488135l-10.41356 15.620339c-0.867797 0.867797-0.867797 1.735593-1.735593 2.60339l-1.735593 1.735593h19.959322c5.20678 0 9.545763 0.867797 12.149152 3.471187 2.60339 1.735593 3.471186 5.20678 3.471187 10.413559s-0.867797 8.677966-3.471187 10.413559-6.074576 3.471186-12.149152 3.471187h-52.935593c8.677966 6.942373 16.488136 13.016949 22.562711 18.223729 6.942373 5.20678 13.884746 11.281356 20.827119 16.488135 11.281356 9.545763 13.016949 17.355932 6.942373 25.166102-4.338983 5.20678-7.810169 6.942373-12.149153 6.074576s-8.677966-3.471186-13.884745-8.677966c-10.413559-10.413559-20.827119-19.959322-31.240678-28.637288v41.654237c0 5.20678-0.867797 8.677966-2.60339 11.281356-1.735593 2.60339-4.338983 3.471186-8.677966 4.338983 0.867797 1.735593 0.867797 3.471186 0 6.074576-0.867797 1.735593-1.735593 4.338983-2.60339 6.942373l-1.735593 3.471187c-0.867797 0.867797-0.867797 1.735593-1.735593 3.471186h48.59661c15.620339 0 25.166102 3.471186 29.505084 9.545763s2.60339 17.355932-4.338983 32.976271c-4.338983 9.545763-9.545763 18.223729-14.752542 26.901695s-11.281356 15.620339-17.355932 22.562712l13.016949 5.20678c4.338983 1.735593 7.810169 3.471186 12.149153 5.206779 6.074576 2.60339 10.413559 6.074576 12.149152 8.677966 1.735593 3.471186 1.735593 7.810169-0.867797 13.016949-1.735593 4.338983-5.20678 6.942373-8.677966 7.81017-4.338983 0.867797-9.545763-0.867797-17.355932-4.338983-5.20678-1.735593-10.413559-4.338983-15.620339-6.942373-5.20678-2.60339-11.281356-5.20678-17.355932-7.810169-11.281356 7.810169-24.298305 15.620339-38.183051 21.694915-14.752542 6.074576-32.108475 12.149153-51.2 17.355932-8.677966 2.60339-14.752542 3.471186-19.091525 2.60339s-6.942373-3.471186-7.81017-9.545763c-0.867797-5.20678 0-9.545763 1.735593-12.149152s7.810169-5.20678 15.620339-6.942373c13.884746-4.338983 26.033898-7.810169 37.315255-12.149153 10.413559-4.338983 20.827119-8.677966 29.505084-13.016949-6.074576-1.735593-11.281356-4.338983-17.355932-6.074576l-15.620339-5.20678c-11.281356-3.471186-17.355932-9.545763-19.091525-16.488136-0.867797-6.942373 2.60339-17.355932 10.413559-31.240678 0.867797-1.735593 2.60339-4.338983 4.338983-6.942372s2.60339-5.20678 4.338983-7.81017H902.508475c-5.20678 0-9.545763-0.867797-12.149153-3.471186-2.60339-1.735593-3.471186-5.20678-3.471186-10.41356s0.867797-8.677966 3.471186-10.413559 6.074576-2.60339 12.149153-2.60339h51.2c2.60339-7.810169 6.074576-13.884746 8.677966-19.959322zM1136.813559 258.60339c-0.867797 3.471186-0.867797 6.942373-1.735593 10.413559s-1.735593 6.942373-1.735593 10.413559h97.19322c8.677966 0 13.016949 5.20678 13.016949 14.752543s-4.338983 13.884746-13.016949 13.884746h-8.677966c-3.471186 39.050847-9.545763 74.630508-16.488135 104.135593-7.810169 30.372881-18.223729 57.274576-30.372882 80.705085 17.355932 28.637288 37.315254 52.935593 60.745763 71.159322 6.074576 5.20678 10.413559 9.545763 11.281356 13.884745s0 8.677966-3.471187 13.01695-6.942373 6.074576-11.281356 6.074576c-4.338983-0.867797-9.545763-3.471186-15.620339-8.677966-11.281356-9.545763-22.562712-19.959322-32.108474-31.240678-9.545763-11.281356-19.091525-23.430508-26.901695-36.447458-9.545763 13.016949-19.959322 25.166102-31.240678 37.315254-11.281356 11.281356-24.298305 22.562712-39.050847 32.976272-7.810169 5.20678-13.016949 7.810169-17.355933 6.942372s-7.810169-2.60339-10.413559-6.942372c-2.60339-4.338983-3.471186-8.677966-1.735593-12.149153 1.735593-3.471186 5.20678-7.810169 12.149152-12.149153 15.620339-11.281356 29.505085-23.430508 41.654238-34.711864s22.562712-24.298305 31.240678-38.183051c-9.545763-19.091525-18.223729-39.050847-25.166102-59.010169-6.942373-19.959322-12.149153-40.786441-14.752542-61.61356l-6.942373 13.01695c-4.338983 6.942373-7.810169 11.281356-12.149153 12.149152-4.338983 1.735593-8.677966 0.867797-13.016949-1.735593-6.942373-4.338983-6.942373-13.016949 0-25.166102 11.281356-18.223729 19.959322-36.447458 26.901695-55.538983 6.074576-19.091525 11.281356-38.183051 13.884746-58.142373 0.867797-8.677966 3.471186-13.884746 5.206779-17.355932 2.60339-3.471186 6.074576-4.338983 11.281356-3.471186s8.677966 2.60339 10.41356 5.206779c-0.867797 1.735593-0.867797 7.810169-1.735594 16.488136z m-10.413559 49.464407l-2.60339 10.413559c-0.867797 3.471186-1.735593 6.074576-3.471186 9.545763 3.471186 24.298305 7.810169 48.59661 13.884745 71.159322 6.074576 22.562712 13.884746 43.389831 23.430509 63.349152 8.677966-19.959322 16.488136-42.522034 21.694915-66.820339 5.20678-25.166102 10.413559-53.80339 13.884746-87.647457h-66.820339z m-156.20339 160.542372c-2.60339 5.20678-5.20678 9.545763-6.942373 13.01695-2.60339 4.338983-4.338983 7.810169-6.074576 10.413559-3.471186 5.20678-4.338983 8.677966-4.338983 10.413559s2.60339 4.338983 6.942373 6.074577c5.20678 1.735593 11.281356 4.338983 18.223729 6.074576l20.827118 7.810169c6.942373-6.942373 13.016949-13.884746 18.223729-21.694915s10.413559-17.355932 15.620339-27.769491c0.867797-1.735593 0.867797-3.471186 0-3.471187-0.867797-0.867797-1.735593-0.867797-4.338983-0.867797h-58.142373z m637.830509 85.044068c5.20678 0 8.677966 0.867797 12.149152 3.471187 2.60339 1.735593 4.338983 6.074576 4.338983 12.149152 0 5.20678-1.735593 9.545763-4.338983 12.149153s-6.942373 3.471186-12.149152 3.471186h-324.555933c-5.20678 0-8.677966-0.867797-11.281355-3.471186s-3.471186-6.074576-3.471187-12.149153c0-10.413559 5.20678-15.620339 15.620339-15.620339h39.050848V357.532203c0-6.942373 0.867797-13.016949 1.735593-17.355932s2.60339-7.810169 5.206779-10.413559 6.074576-4.338983 9.545763-5.20678c4.338983-0.867797 9.545763-1.735593 15.620339-1.735593h183.972881c6.074576 0 11.281356 0.867797 15.620339 1.735593s7.810169 2.60339 9.545763 5.20678 4.338983 6.074576 5.20678 10.413559 1.735593 10.413559 1.735593 17.355932v195.254238l36.447458 0.867796z m-175.294916-285.505084c-0.867797-2.60339-2.60339-4.338983-3.471186-6.074577-0.867797-1.735593-1.735593-4.338983-2.60339-6.074576-5.20678-8.677966-3.471186-15.620339 4.338983-20.827119 4.338983-2.60339 8.677966-3.471186 12.149153-1.735593 3.471186 1.735593 7.810169 5.20678 11.281356 12.149153 1.735593 3.471186 3.471186 6.074576 5.206779 10.413559s3.471186 7.810169 5.20678 13.016949h113.681356c9.545763 0 18.223729 0.867797 24.298305 1.735593 6.074576 1.735593 11.281356 3.471186 14.752542 6.942373s6.074576 6.942373 6.942373 12.149153 1.735593 10.413559 1.735593 17.355932c0 6.074576-0.867797 12.149153-1.735593 19.091525-0.867797 6.074576-2.60339 13.016949-5.206779 20.827119-1.735593 6.942373-4.338983 11.281356-7.81017 13.016949s-7.810169 1.735593-13.016949 0c-4.338983-1.735593-6.942373-4.338983-7.81017-7.810169-0.867797-3.471186 0-9.545763 2.60339-17.355932 4.338983-14.752542 5.20678-25.166102 3.471187-30.372882s-7.810169-7.810169-18.223729-7.810169h-269.016949c-5.20678 0-8.677966 3.471186-8.677966 10.413559v37.315254c0 5.20678-1.735593 8.677966-4.338983 11.281356s-6.074576 3.471186-10.41356 3.471187c-5.20678 0-8.677966-0.867797-11.281356-3.471187-2.60339-1.735593-4.338983-6.074576-4.338983-11.281356v-37.315254c0-13.016949 2.60339-22.562712 8.677966-29.505085 6.074576-6.074576 15.620339-9.545763 28.637289-9.545762h124.962711z m-79.837288 285.505084h187.444068v-47.728813h-187.444068v47.728813z m0-76.366101h187.444068v-47.728814h-187.444068V477.288136z m0-76.366102h187.444068v-42.522034c0-3.471186-0.867797-5.20678-3.471186-5.20678h-180.501695c-1.735593 0-3.471186 1.735593-3.471187 5.20678v42.522034z m633.491526 155.335593c0 11.281356-1.735593 19.959322-6.074577 25.166102s-12.149153 7.810169-23.430508 7.810169H1796.338983c-11.281356 0-19.959322-2.60339-23.430508-7.810169-4.338983-5.20678-6.074576-13.884746-6.074577-25.166102v-67.688135c0-11.281356 1.735593-19.959322 6.074577-24.298306 4.338983-5.20678 12.149153-7.810169 23.430508-7.810169h160.542373c11.281356 0 19.959322 2.60339 23.430508 7.810169 4.338983 5.20678 6.074576 13.016949 6.074577 24.298306v67.688135z m-244.718644-321.084746c5.20678 0.867797 8.677966 3.471186 10.413559 7.81017 0.867797 3.471186 0.867797 9.545763-1.735593 18.223729-6.942373 24.298305-14.752542 46.861017-23.430509 69.423728v254.264407c0 10.413559-5.20678 15.620339-14.752542 15.620339s-13.884746-5.20678-13.884746-15.620339V388.772881c-3.471186 6.074576-6.942373 11.281356-10.413559 16.488136-3.471186 5.20678-6.942373 10.413559-10.41356 16.488136-5.20678 7.810169-9.545763 12.149153-13.016949 13.884745s-7.810169 0.867797-13.016949-1.735593c-4.338983-2.60339-6.074576-6.074576-6.074576-10.413559s2.60339-9.545763 6.942373-16.488136c18.223729-26.901695 32.108475-52.067797 43.38983-77.233898 11.281356-25.166102 19.959322-50.332203 26.033899-76.366102 2.60339-8.677966 5.20678-14.752542 7.810169-17.355932 2.60339-1.735593 6.942373-2.60339 12.149153-0.867797z m216.081356 253.396611c0-1.735593-0.867797-3.471186-1.735594-3.471187h-157.071186c-2.60339 0-3.471186 0.867797-3.471187 3.471187V555.389831c0 2.60339 0.867797 4.338983 3.471187 4.338983h157.071186c0.867797 0 1.735593-1.735593 1.735594-4.338983v-66.820339z m39.050847-207.40339c5.20678 0 8.677966 1.735593 10.413559 4.338983s2.60339 6.074576 2.60339 10.413559-0.867797 7.810169-2.60339 10.413559-5.20678 4.338983-10.413559 4.338983h-238.644068c-5.20678 0-8.677966-1.735593-11.281356-4.338983s-2.60339-6.074576-2.60339-10.413559 0.867797-7.810169 2.60339-10.413559 6.074576-4.338983 11.281356-4.338983h105.00339c-2.60339-3.471186-4.338983-6.942373-7.810169-10.41356-2.60339-3.471186-5.20678-7.810169-8.677967-12.149152-6.942373-7.810169-6.074576-15.620339 1.735594-21.694915 3.471186-2.60339 6.942373-4.338983 10.413559-3.471187s6.942373 2.60339 10.413559 6.942373c4.338983 5.20678 8.677966 11.281356 13.016949 18.223729s8.677966 13.884746 13.01695 21.694915l101.532203 0.867797z m-10.413559 131.037288c0 4.338983-0.867797 7.810169-3.471187 10.413559-1.735593 2.60339-5.20678 4.338983-10.413559 4.338983h-196.122034c-5.20678 0-8.677966-1.735593-10.413559-4.338983s-2.60339-6.074576-2.60339-10.413559 0.867797-7.810169 2.60339-11.281356 5.20678-4.338983 10.413559-4.338983h196.122034c5.20678 0 8.677966 1.735593 11.281356 4.338983s2.60339 6.942373 2.60339 11.281356z m86.779661-56.40678c0 4.338983-0.867797 7.810169-3.471187 10.413559s-5.20678 3.471186-10.413559 3.471187h-282.901695c-5.20678 0-8.677966-0.867797-10.413559-3.471187-1.735593-2.60339-2.60339-6.074576-2.60339-10.413559s0.867797-8.677966 2.60339-11.281356 5.20678-4.338983 10.413559-4.338983h282.901695c5.20678 0 8.677966 1.735593 11.281356 4.338983 1.735593 2.60339 2.60339 6.074576 2.60339 11.281356z" fill="#333333" p-id="1526"></path><path d="M926.80678 828.745763c-5.20678-2.60339-8.677966-6.074576-12.149153-11.281356-2.60339-5.20678-4.338983-10.413559-4.338983-16.488136v-5.206779c0-0.867797 0-0.867797 0.867797-1.735594s0.867797-0.867797 1.735593-0.867796h19.959322c0.867797 0 0.867797 0 1.735593 0.867796 0 0 0.867797 0.867797 0.867797 1.735594v3.471186c0 3.471186 0.867797 6.074576 2.60339 8.677966 1.735593 2.60339 4.338983 3.471186 6.942372 3.471187s5.20678-0.867797 6.942373-3.471187 2.60339-5.20678 2.60339-7.810169c0-3.471186-0.867797-6.074576-3.471186-8.677967s-6.942373-6.074576-13.884746-11.281355c-6.074576-4.338983-10.413559-7.810169-13.884746-11.281356s-6.942373-6.942373-9.545762-12.149153c-2.60339-4.338983-3.471186-10.413559-3.471187-16.488136 0-9.545763 3.471186-17.355932 9.545763-23.430508s13.884746-8.677966 24.298305-8.677966c10.413559 0 18.223729 3.471186 24.298305 9.545763 6.074576 6.074576 9.545763 13.884746 9.545763 24.298305v4.338983c0 0.867797 0 0.867797-0.867797 1.735593 0 0-0.867797 0.867797-1.735593 0.867797h-19.959322c-0.867797 0-0.867797 0-1.735593-0.867797s-0.867797-0.867797-0.867797-1.735593v-4.338983c0-3.471186-0.867797-6.074576-2.60339-8.677966-1.735593-1.735593-4.338983-3.471186-6.942373-3.471187s-5.20678 0.867797-6.942373 3.471187c-1.735593 1.735593-2.60339 5.20678-2.603389 8.677966s0.867797 6.942373 3.471186 9.545762c2.60339 2.60339 6.942373 6.074576 13.016949 11.281356 6.942373 5.20678 12.149153 9.545763 16.488136 13.016949 3.471186 3.471186 6.074576 6.942373 8.677966 11.281356s3.471186 8.677966 3.471186 14.752543c0 10.413559-3.471186 18.223729-9.545762 24.298305-6.074576 6.074576-14.752542 8.677966-24.298306 8.677966-6.942373-1.735593-13.016949-3.471186-18.223728-6.074576zM1103.837288 710.725424s0.867797-0.867797 1.735593-0.867797h19.959322c0.867797 0 0.867797 0 1.735594 0.867797l0.867796 0.867796v117.152543c0 0.867797 0 0.867797-0.867796 1.735593 0 0-0.867797 0.867797-1.735594 0.867797h-19.959322c-0.867797 0-0.867797 0-1.735593-0.867797 0 0-0.867797-0.867797-0.867796-1.735593V781.016949c0-0.867797 0-0.867797-0.867797-0.867796h-17.355932c-0.867797 0-0.867797 0-0.867797 0.867796v47.728814c0 0.867797 0 0.867797-0.867797 1.735593 0 0-0.867797 0.867797-1.735593 0.867797h-19.959322c-0.867797 0-0.867797 0-1.735593-0.867797 0 0-0.867797-0.867797-0.867797-1.735593V711.59322c0-0.867797 0-0.867797 0.867797-1.735593s0.867797-0.867797 1.735593-0.867796h19.959322c0.867797 0 0.867797 0 1.735593 0.867796s0.867797 0.867797 0.867797 1.735593v46.861017c0 0.867797 0 0.867797 0.867797 0.867797h17.355932c0.867797 0 0.867797 0 0.867797-0.867797l0.867796-47.728813zM1220.989831 822.671186c-6.074576-6.942373-9.545763-15.620339-9.545763-26.033898V711.59322c0-0.867797 0-0.867797 0.867796-1.735593 0 0 0.867797-0.867797 1.735594-0.867796h19.959322c0.867797 0 0.867797 0 1.735593 0.867796s0.867797 0.867797 0.867796 1.735593v87.647458c0 3.471186 0.867797 6.942373 2.60339 8.677966 1.735593 2.60339 4.338983 3.471186 6.942373 3.471187s5.20678-0.867797 6.942373-3.471187 2.60339-5.20678 2.60339-8.677966V711.59322c0-0.867797 0-0.867797 0.867797-1.735593s0.867797-0.867797 1.735593-0.867796h19.959322c0.867797 0 0.867797 0 1.735593 0.867796 0 0 0.867797 0.867797 0.867797 1.735593v85.044068c0 11.281356-3.471186 19.959322-9.545763 26.033898s-14.752542 9.545763-25.166102 9.545763c-10.413559 0.867797-18.223729-2.60339-25.166101-9.545763zM1386.738983 830.481356s-0.867797-0.867797-0.867797-1.735593v-45.993221l-24.298305-70.291525V711.59322c0-0.867797 0.867797-1.735593 1.735594-1.735593h21.694915c0.867797 0 1.735593 0.867797 2.60339 1.735593l10.413559 41.654238s0 0.867797 0.867797 0.867796l0.867796-0.867796 10.41356-41.654238c0-0.867797 0.867797-1.735593 2.603389-1.735593h21.694916c0.867797 0 0.867797 0 1.735593 0.867797s0 0.867797 0 1.735593l-24.298305 70.291525v45.993221c0 0.867797 0 0.867797-0.867797 1.735593s-0.867797 0.867797-1.735593 0.867797H1388.474576c-0.867797 0-0.867797 0-1.735593-0.867797zM1516.908475 830.481356s-0.867797-0.867797-0.867797-1.735593V711.59322c0-0.867797 0-0.867797 0.867797-1.735593 0 0 0.867797-0.867797 1.735593-0.867796h19.959322c0.867797 0 0.867797 0 1.735593 0.867796s0.867797 0.867797 0.867797 1.735593v117.152543c0 0.867797 0 0.867797-0.867797 1.735593 0 0-0.867797 0.867797-1.735593 0.867797H1518.644068c-0.867797 0-0.867797 0-1.735593-0.867797zM1622.779661 830.481356v-1.735593l23.430508-58.142373v-0.867797L1622.779661 711.59322v-0.867796c0-0.867797 0.867797-1.735593 1.735593-1.735593h20.827119c0.867797 0 1.735593 0.867797 2.60339 1.735593l11.281356 32.976271s0 0.867797 0.867796 0.867797l0.867797-0.867797 11.281356-32.976271c0-0.867797 0.867797-1.735593 2.60339-1.735593h20.827118c0.867797 0 1.735593 0 1.735593 0.867796v1.735593l-23.430508 58.142373v0.867797l23.430508 58.142373v0.867796c0 0.867797-0.867797 1.735593-1.735593 1.735594H1674.847458c-0.867797 0-1.735593-0.867797-2.60339-1.735594l-11.281356-32.976271s0-0.867797-0.867797-0.867796l-0.867796 0.867796-12.149153 32.976271c0 0.867797-0.867797 1.735593-2.60339 1.735594l-21.694915-0.867797c0.867797 0.867797 0 0.867797 0 0zM1778.115254 830.481356s-0.867797-0.867797-0.867796-1.735593V711.59322c0-0.867797 0-0.867797 0.867796-1.735593 0 0 0.867797-0.867797 1.735593-0.867796h19.959322c0.867797 0 0.867797 0 1.735594 0.867796s0.867797 0.867797 0.867796 1.735593v117.152543c0 0.867797 0 0.867797-0.867796 1.735593 0 0-0.867797 0.867797-1.735594 0.867797h-19.959322c-0.867797 0-0.867797 0-1.735593-0.867797zM1937.789831 710.725424s0.867797-0.867797 1.735593-0.867797h19.959322c0.867797 0 0.867797 0 1.735593 0.867797s0 0.867797 0 0.867796v117.152543c0 0.867797 0 0.867797-0.867797 1.735593 0 0-0.867797 0.867797-1.735593 0.867797h-22.562712c-0.867797 0-1.735593-0.867797-2.60339-1.735594l-21.694915-66.820339s0-0.867797-0.867796 0v67.688136c0 0.867797 0 0.867797-0.867797 1.735593 0 0-0.867797 0.867797-1.735593 0.867797h-19.959322c-0.867797 0-0.867797 0-1.735593-0.867797 0 0-0.867797-0.867797-0.867797-1.735593V711.59322c0-0.867797 0-0.867797 0.867797-1.735593s0.867797-0.867797 1.735593-0.867796h22.562712c0.867797 0 1.735593 0.867797 2.603389 1.735593l21.694916 66.820339s0 0.867797 0.867796 0 0 0 0-0.867797v-66.820339c0.867797 1.735593 0.867797 0.867797 1.735594 0.867797z" fill="#333333" p-id="1527"></path></svg>